<svg version="1.1" id="svg2" xml:space="preserve" attr.width="{{size}}px" viewBox="1860 0 1500 3450"
  sodipodi:docname="vecteezy_music-notes-and-treble-clef_.eps"
  xmlns:inkscape="http://www.inkscape.org/namespaces/inkscape"
  xmlns:sodipodi="http://sodipodi.sourceforge.net/DTD/sodipodi-0.dtd" xmlns="http://www.w3.org/2000/svg"
  xmlns:svg="http://www.w3.org/2000/svg">
  <defs id="defs6" id="namedview4" pagecolor="#ffffff" bordercolor="#666666" borderopacity="1.0" inkscape:pageshadow="2"
    inkscape:pageopacity="0.0" inkscape:pagecheckerboard="0">
    <linearGradient id="gradient" x1="100%" y1="100%">
      <stop offset="0%" stop-color="#f5b316" stop-opacity=".5">
        <animate attributeName="stop-color" values="#f5b316;#e7e5e5;#f5b316;#e7e5e5;#f5b316;#e7e5e5;#f5b316;" dur="4s"
          repeatCount="indefinite" />
      </stop>
      <stop offset="100%" stop-color="#f5b316" stop-opacity=".5">
        <animate attributeName="stop-color" values="#e7e5e5;#f5b316;#e7e5e5;#f5b316;#e7e5e5;#f5b316;#e7e5e5;" dur="4s"
          repeatCount="indefinite" />
      </stop>
    </linearGradient>
  </defs>

  <g id="g8" inkscape:groupmode="layer" inkscape:label="ink_ext_XXXXXX"
    transform="matrix(1.3333333,0,0,-1.3333333,0,3683.4267)">
    <animate attributeType="XML" attributeName="fill" from="red" to="green" dur="3s" repeatCount="indefinite" />
    <g id="g10" transform="scale(0.1)">

      <path
        d="m 20668,21370.3 c 269.9,237.7 514,462 717.9,671.5 1000.3,1028.2 1165.2,2421 930.5,3361.2 -565.2,2342.3 -1590.9,-3362.4 -1648.4,-4032.7 z m 524.2,-7061.3 c -141.7,55.7 -292.1,93.7 -449.2,111.5 55.1,-941.9 118.2,-1885.5 179.4,-2799.4 44.9,-671.3 88.7,-1326.5 127.7,-1957.9 198.6,107.1 384.9,234.8 553.9,381.4 761.3,660.3 1167.5,1725.4 732.8,3012.2 -188.1,557.1 -589.9,1033.9 -1144.6,1252.2 z M 18704.4,5012 c 0,-668.4 -541.9,-1210.4 -1210.4,-1210.4 -668.5,0 -1210.5,542 -1210.5,1210.4 0,74.5 6.8,147.3 19.7,218 -453.9,-556.1 -369,-1149.5 -31.6,-1548.3 692,-818.3 2334.4,-604.8 2977.9,165.8 429.5,514.2 487.8,1307.9 508.6,1952.5 21.9,676.2 -9.8,1372.8 -40.9,2049.9 -2341.2,-94.8 -4339.3,1286.1 -4861.5,3502 -904.1,3836.7 2025.6,6719.9 4308.3,8721.9 19.6,693 60.2,1341.1 127.9,1925.9 334.6,2887.1 976.6,4428.3 1633.3,5066.2 1196.4,1162.1 3042.2,399 3413.1,-1225 329.5,-1319.5 50,-3293.5 -1345.9,-4728.1 -563.8,-579.6 -1793.4,-1175.1 -2409.3,-1701.9 -11.4,-1102.5 24.1,-2310.1 82.9,-3549.1 1423.9,-55.3 2580.1,-1029.9 3026.4,-2351.3 648.7,-1920.6 16.6,-3532.6 -1153,-4547 -412.1,-357.4 -891.5,-637.7 -1404.4,-827.9 37.6,-785.1 76.9,-1596.2 51.5,-2380.4 C 21153.4,4733 21026.3,3741.7 20347.4,2928.8 19492.5,1904.9 18029,1526 16752.9,1830 c -1481,352.8 -2633.4,1696.4 -2176.6,3274.8 386.2,1334.2 1649.9,1686.9 2421.8,1586.9 953.2,-123.5 1706.3,-829.2 1706.3,-1679.7 z m -893.1,6574.4 c -1070.7,1649.6 -43.6,3442 1433.7,4023.8 -42.1,855.6 -73.8,1700.4 -87.7,2512 -1663.1,-1625.3 -3107,-3652 -2503.8,-6212 355.8,-1509.9 1362.2,-2681.7 2986.2,-2629.6 -43,710.8 -93.6,1467.5 -145.7,2245.3 -55.4,827.4 -112.3,1678.7 -163.6,2532.5 -1131.4,-524 -1575.2,-1658.7 -1519.1,-2472 v 0"
        fill="url('#gradient')">
      </path>
    </g>
  </g>
</svg>